<svg xmlns="http://www.w3.org/2000/svg" width="32" height="32" viewBox="0 0 96 96">
  <rect width="96" height="96" rx="14" fill="#0f172a"/>
  <g fill="#0f172a">
    <rect x="14" y="14" width="68" height="68" rx="8"/>
    <rect x="21" y="8" width="8" height="6"/>
    <rect x="44" y="8" width="8" height="6"/>
    <rect x="67" y="8" width="8" height="6"/>
    <rect x="21" y="82" width="8" height="6"/>
    <rect x="44" y="82" width="8" height="6"/>
    <rect x="67" y="82" width="8" height="6"/>
    <rect x="8" y="21" width="6" height="8"/>
    <rect x="8" y="44" width="6" height="8"/>
    <rect x="8" y="67" width="6" height="8"/>
    <rect x="82" y="21" width="6" height="8"/>
    <rect x="82" y="44" width="6" height="8"/>
    <rect x="82" y="67" width="6" height="8"/>
  </g>
  <rect x="28" y="32" width="40" height="8" fill="#ffffff"/>
  <rect x="44" y="32" width="8" height="40" fill="#ffffff"/>
  <circle cx="27" cy="27" r="3" fill="#14b8a6"/>
</svg>
